<?xml version="1.0" encoding="UTF-8"?> <svg xmlns="http://www.w3.org/2000/svg" width="360" height="104" viewBox="0 0 360 104" fill="none"><path d="M120.95 69.3C118.16 67.74 115.95 65.57 114.33 62.78C112.7 59.99 111.89 56.85 111.89 53.36C111.89 49.87 112.7 46.74 114.33 43.96C115.95 41.19 118.16 39.02 120.95 37.46C123.74 35.9 126.79 35.12 130.12 35.12C133.45 35.12 136.55 35.9 139.34 37.46C142.13 39.02 144.33 41.18 145.94 43.96C147.55 46.73 148.35 49.87 148.35 53.36C148.35 56.85 147.54 59.99 145.94 62.78C144.33 65.57 142.13 67.74 139.34 69.3C136.55 70.86 133.48 71.64 130.12 71.64C126.76 71.64 123.74 70.86 120.95 69.3ZM136.43 64.94C138.28 63.86 139.72 62.32 140.77 60.32C141.81 58.32 142.34 56 142.34 53.36C142.34 50.72 141.82 48.41 140.77 46.43C139.73 44.45 138.28 42.92 136.43 41.86C134.58 40.8 132.48 40.27 130.11 40.27C127.74 40.27 125.64 40.8 123.79 41.86C121.94 42.92 120.49 44.44 119.45 46.43C118.41 48.42 117.88 50.73 117.88 53.36C117.88 55.99 118.4 58.31 119.45 60.32C120.49 62.32 121.94 63.86 123.79 64.94C125.64 66.02 127.74 66.56 130.11 66.56C132.48 66.56 134.58 66.02 136.43 64.94Z" fill="black"></path><path d="M162.74 43.83C164.47 42.96 166.39 42.52 168.52 42.52C171.02 42.52 173.28 43.12 175.3 44.32C177.32 45.52 178.91 47.22 180.07 49.43C181.23 51.64 181.82 54.16 181.82 57C181.82 59.84 181.24 62.38 180.07 64.62C178.91 66.86 177.3 68.61 175.27 69.86C173.23 71.11 170.98 71.73 168.52 71.73C166.33 71.73 164.39 71.3 162.69 70.45C161 69.59 159.65 68.5 158.66 67.16V71.27H152.81V33.27H158.66V47.19C159.65 45.82 161.01 44.7 162.74 43.83ZM174.65 51.94C173.85 50.52 172.78 49.44 171.47 48.71C170.15 47.97 168.74 47.61 167.23 47.61C165.72 47.61 164.36 47.99 163.05 48.74C161.73 49.49 160.67 50.59 159.87 52.03C159.07 53.47 158.66 55.16 158.66 57.11C158.66 59.06 159.06 60.76 159.87 62.22C160.67 63.68 161.74 64.78 163.05 65.53C164.37 66.28 165.76 66.66 167.23 66.66C168.7 66.66 170.15 66.27 171.47 65.5C172.79 64.73 173.85 63.61 174.65 62.14C175.45 60.67 175.86 58.96 175.86 57.01C175.86 55.06 175.46 53.37 174.65 51.95V51.94Z" fill="black"></path><path d="M192.19 33.28V71.28H186.34V33.28H192.19Z" fill="black"></path><path d="M198.92 38.16C198.2 37.44 197.84 36.55 197.84 35.49C197.84 34.43 198.2 33.54 198.92 32.82C199.64 32.1 200.53 31.74 201.59 31.74C202.65 31.74 203.49 32.1 204.21 32.82C204.93 33.54 205.29 34.43 205.29 35.49C205.29 36.55 204.93 37.44 204.21 38.16C203.49 38.88 202.62 39.24 201.59 39.24C200.56 39.24 199.64 38.88 198.92 38.16ZM204.47 42.99V71.28H198.62V42.99H204.47Z" fill="black"></path><path d="M221.82 66.04L229.83 42.99H236.04L225.26 71.28H218.28L207.55 42.99H213.81L221.82 66.04Z" fill="black"></path><path d="M239.479 38.16C238.759 37.44 238.399 36.55 238.399 35.49C238.399 34.43 238.759 33.54 239.479 32.82C240.199 32.1 241.089 31.74 242.149 31.74C243.209 31.74 244.049 32.1 244.769 32.82C245.489 33.54 245.849 34.43 245.849 35.49C245.849 36.55 245.489 37.44 244.769 38.16C244.049 38.88 243.179 39.24 242.149 39.24C241.119 39.24 240.199 38.88 239.479 38.16ZM245.029 42.99V71.28H239.179V42.99H245.029Z" fill="black"></path><path d="M256.48 69.91C254.32 68.7 252.63 66.98 251.4 64.78C250.17 62.57 249.55 60.01 249.55 57.1C249.55 54.19 250.18 51.68 251.45 49.45C252.72 47.23 254.44 45.51 256.64 44.32C258.83 43.12 261.28 42.52 263.98 42.52C266.68 42.52 269.13 43.12 271.32 44.32C273.51 45.52 275.24 47.23 276.51 49.45C277.78 51.68 278.41 54.23 278.41 57.1C278.41 59.97 277.76 62.53 276.46 64.75C275.16 66.97 273.39 68.7 271.15 69.91C268.91 71.13 266.43 71.73 263.73 71.73C261.03 71.73 258.65 71.12 256.49 69.91H256.48ZM267.96 65.57C269.28 64.85 270.35 63.77 271.17 62.34C271.99 60.91 272.4 59.16 272.4 57.1C272.4 55.04 272.01 53.31 271.22 51.89C270.43 50.47 269.39 49.4 268.09 48.68C266.79 47.96 265.39 47.6 263.88 47.6C262.37 47.6 260.98 47.96 259.7 48.68C258.42 49.4 257.4 50.47 256.65 51.89C255.9 53.31 255.52 55.05 255.52 57.1C255.52 60.15 256.3 62.5 257.86 64.16C259.42 65.82 261.38 66.65 263.74 66.65C265.25 66.65 266.66 66.29 267.98 65.57H267.96Z" fill="black"></path><path d="M308.54 42.98V71.27H302.69V67.93C301.77 69.09 300.56 70.01 299.07 70.68C297.58 71.35 296 71.68 294.32 71.68C292.1 71.68 290.1 71.22 288.34 70.29C286.58 69.37 285.19 68 284.18 66.18C283.17 64.36 282.67 62.17 282.67 59.61V42.97H288.47V58.73C288.47 61.26 289.1 63.21 290.37 64.56C291.64 65.91 293.36 66.59 295.56 66.59C297.76 66.59 299.49 65.91 300.77 64.56C302.05 63.21 302.7 61.27 302.7 58.73V42.97H308.55L308.54 42.98Z" fill="black"></path><path d="M319.25 70.53C317.49 69.73 316.09 68.63 315.07 67.24C314.05 65.85 313.49 64.31 313.43 62.59H319.49C319.59 63.79 320.17 64.79 321.21 65.59C322.25 66.39 323.56 66.8 325.14 66.8C326.72 66.8 328.06 66.48 328.97 65.85C329.88 65.22 330.33 64.4 330.33 63.41C330.33 62.35 329.82 61.56 328.81 61.05C327.8 60.54 326.2 59.97 324.01 59.36C321.89 58.78 320.16 58.21 318.82 57.67C317.48 57.12 316.33 56.28 315.35 55.15C314.38 54.02 313.89 52.53 313.89 50.68C313.89 49.17 314.33 47.8 315.23 46.55C316.12 45.3 317.39 44.32 319.05 43.6C320.71 42.88 322.62 42.52 324.78 42.52C328 42.52 330.59 43.33 332.56 44.96C334.53 46.59 335.58 48.8 335.72 51.61H329.87C329.77 50.34 329.25 49.33 328.33 48.58C327.41 47.83 326.16 47.45 324.58 47.45C323 47.45 321.86 47.74 321.04 48.32C320.22 48.9 319.81 49.67 319.81 50.63C319.81 51.38 320.08 52.02 320.63 52.53C321.18 53.04 321.85 53.45 322.63 53.74C323.42 54.03 324.58 54.4 326.12 54.84C328.17 55.39 329.86 55.94 331.18 56.51C332.5 57.07 333.64 57.91 334.59 59C335.55 60.1 336.05 61.55 336.08 63.36C336.08 64.97 335.63 66.41 334.74 67.67C333.85 68.94 332.59 69.93 330.97 70.65C329.34 71.37 327.44 71.73 325.24 71.73C323.04 71.73 321.02 71.33 319.26 70.52L319.25 70.53Z" fill="black"></path><path d="M59.9297 15.74C40.0497 15.74 23.9297 31.86 23.9297 51.74C23.9297 71.62 40.0497 87.74 59.9297 87.74C79.8097 87.74 95.9297 71.62 95.9297 51.74C95.9297 31.86 79.8197 15.74 59.9297 15.74ZM67.1597 67.05C63.1197 73.33 71.6097 78.68 67.1597 80.78C62.8997 82.8 51.8997 80.84 47.4897 78.66C37.6897 73.81 30.9697 63.33 30.9697 51.41C30.9697 34.97 43.5697 16.64 69.9897 23.08C84.2497 26.55 91.4397 40.51 88.2197 48.37C84.8497 56.59 72.7297 58.38 67.1597 67.06V67.05Z" fill="black"></path></svg> 